<?xml version="1.0" encoding="UTF-8" standalone="no"?>
<!-- Created with Inkscape (http://www.inkscape.org/) -->

<svg
   width="64.917496mm"
   height="16.933332mm"
   viewBox="0 0 64.917496 16.933332"
   version="1.1"
   id="svg1"
   xml:space="preserve"
   inkscape:version="1.3 (0e150ed6c4, 2023-07-21)"
   sodipodi:docname="dodo.main.title.svg"
   inkscape:export-filename="dodo.main.title.svg"
   inkscape:export-xdpi="96"
   inkscape:export-ydpi="96"
   xmlns:inkscape="http://www.inkscape.org/namespaces/inkscape"
   xmlns:sodipodi="http://sodipodi.sourceforge.net/DTD/sodipodi-0.dtd"
   xmlns="http://www.w3.org/2000/svg"
   xmlns:svg="http://www.w3.org/2000/svg"><sodipodi:namedview
     id="namedview1"
     pagecolor="#505050"
     bordercolor="#eeeeee"
     borderopacity="1"
     inkscape:showpageshadow="0"
     inkscape:pageopacity="0"
     inkscape:pagecheckerboard="0"
     inkscape:deskcolor="#505050"
     inkscape:document-units="mm"
     inkscape:zoom="1.4062269"
     inkscape:cx="179.91407"
     inkscape:cy="201.60331"
     inkscape:window-width="1920"
     inkscape:window-height="1009"
     inkscape:window-x="-8"
     inkscape:window-y="-8"
     inkscape:window-maximized="1"
     inkscape:current-layer="g41" /><defs
     id="defs1" /><path
     id="path41"
     style="font-weight:bold;font-size:21.3333px;font-family:'Funnel Display';-inkscape-font-specification:'Funnel Display Bold';display:inline;fill:#8031a7;fill-opacity:1;stroke-width:0.788888;paint-order:stroke markers fill"
     d="m 32.445306,12.793189 c -2.406215,0.0092 -4.667858,1.168367 -6.104018,3.128432 0.239656,-0.03705 0.478566,-0.05701 0.714313,-0.05793 1.524096,-0.0059 2.926814,0.738518 3.687433,2.180534 l 0.260087,0.493671 -0.220642,0.511545 c -0.07039,0.162905 -0.06719,0.148586 -0.128811,0.290285 l 0.67302,-0.147916 0.437586,0.361163 c 0,0 1.258695,1.018327 2.192861,2.529987 0.46708,0.755831 0.876807,1.659792 0.95591,2.695777 0.07911,1.035987 -0.240623,2.201574 -1.081639,3.164795 -0.08791,0.100682 -0.179355,0.194415 -0.273646,0.283506 3.750081,-0.56005 6.529482,-3.825585 6.531127,-7.673781 0,-4.285677 -3.42223,-7.760065 -7.643581,-7.760065 z m 16.568488,2.851706 v 5.724365 h -0.07088 c -0.308147,-0.533332 -0.746952,-0.94203 -1.315839,-1.226474 -0.557036,-0.296295 -1.226362,-0.444365 -2.008582,-0.444365 -1.019257,0 -1.896251,0.231137 -2.631064,0.693358 -0.722961,0.450369 -1.274324,1.096225 -1.653582,1.937705 -0.379258,0.829627 -0.568862,1.801115 -0.568862,2.915186 0,1.102219 0.195625,2.074323 0.586735,2.915803 0.39111,0.829627 0.965943,1.475484 1.724459,1.937705 0.770369,0.462221 1.700939,0.693358 2.791306,0.693358 0.900739,0 1.665175,-0.17154 2.293321,-0.515242 0.639998,-0.343703 1.149212,-0.824041 1.52847,-1.440336 h 0.746978 v 1.742332 h 2.986679 v -2.915802 h -1.45759 V 15.644895 Z m 26.346997,0 v 5.724365 h -0.07149 c -0.308148,-0.533332 -0.746336,-0.94203 -1.315224,-1.226474 -0.557035,-0.296295 -1.226977,-0.444365 -2.009198,-0.444365 -1.019256,0 -1.89625,0.231137 -2.631063,0.693358 -0.722961,0.450369 -1.273708,1.096225 -1.652966,1.937705 -0.379259,0.829627 -0.568862,1.801115 -0.568862,2.915186 0,1.102219 0.195009,2.074323 0.586119,2.915803 0.39111,0.829627 0.965942,1.475484 1.724459,1.937705 0.770368,0.462221 1.700938,0.693358 2.791306,0.693358 0.900738,0 1.665174,-0.17154 2.293321,-0.515242 0.639998,-0.343703 1.149827,-0.824041 1.529086,-1.440336 h 0.746361 v 1.742332 h 2.986679 V 27.662488 H 78.311723 V 15.644895 Z m -48.121527,1.34419 c -0.05647,-9.32e-4 -0.111785,-6.08e-4 -0.167022,0.0012 -0.88383,0.02938 -1.593184,0.390129 -1.593184,0.390129 -0.817044,3.012078 -1.82083,4.480242 -2.711801,5.173993 1.284637,0.923554 2.166665,2.373961 2.325986,4.027025 0.667738,-0.309017 1.137146,-0.642726 1.440953,-0.949747 0.579489,-0.58562 0.50728,-1.029628 0.480112,-1.075475 l -0.148533,-0.250226 0.751908,-0.445598 0.250226,-0.148533 0.148532,0.250226 c 0.419631,0.708129 0.150322,1.675946 -0.65453,2.48931 -0.511868,0.517289 -1.25868,1.005343 -2.293321,1.40952 -0.0414,0.303613 0.172399,0.99773 0.08382,1.28564 3.620296,-1.383663 5.982433,0.11479 7.801975,-1.969137 2.606601,-2.985353 -1.930926,-6.725883 -1.930926,-6.725883 L 28.635841,20.9754 c 0,0 0.0582,-0.02908 1.077325,-2.387618 -0.655149,-1.242053 -1.626813,-1.584916 -2.473902,-1.59873 z m 33.010015,2.709336 c -1.17333,0 -2.192373,0.225116 -3.057556,0.675485 -0.865182,0.450369 -1.534509,1.090205 -2.008581,1.919832 -0.462222,0.829628 -0.693359,1.807753 -0.693359,2.933675 0,1.137775 0.236543,2.121306 0.710615,2.950933 0.474073,0.829628 1.137994,1.475484 1.991325,1.937705 0.865183,0.450369 1.878821,0.675485 3.040299,0.675485 1.161479,0 2.168478,-0.225116 3.021809,-0.675485 0.865183,-0.450369 1.529104,-1.090204 1.991325,-1.919832 0.462221,-0.841479 0.693358,-1.825626 0.693358,-2.951549 0,-1.137774 -0.231137,-2.121304 -0.693358,-2.950932 -0.462221,-0.829627 -1.12012,-1.469463 -1.973451,-1.919832 -0.853332,-0.450369 -1.860947,-0.675485 -3.022426,-0.675485 z m 26.346997,0 c -1.173331,0 -2.192989,0.225116 -3.058172,0.675485 -0.865184,0.450369 -1.534509,1.090205 -2.008582,1.919832 -0.462221,0.829628 -0.693358,1.807753 -0.693358,2.933675 0,1.137775 0.237158,2.121306 0.711231,2.950933 0.474073,0.829628 1.137377,1.475484 1.990709,1.937705 0.865183,0.450369 1.87882,0.675485 3.040298,0.675485 1.161479,0 2.169095,-0.225116 3.022426,-0.675485 0.865182,-0.450369 1.528487,-1.090204 1.990708,-1.919832 0.462221,-0.841479 0.693359,-1.825626 0.693359,-2.951549 0,-1.137774 -0.231138,-2.121304 -0.693359,-2.950932 -0.462221,-0.829627 -1.12012,-1.469463 -1.973451,-1.919832 -0.853331,-0.450369 -1.860331,-0.675485 -3.021809,-0.675485 z m -40.177799,2.55957 c 0.794073,0 1.421865,0.225733 1.884086,0.676102 0.474072,0.438517 0.711231,1.048862 0.711231,1.831082 v 0.959607 c 0,0.78222 -0.237159,1.398586 -0.711231,1.848956 -0.462221,0.438517 -1.090013,0.657611 -1.884086,0.657611 -0.900738,0 -1.576086,-0.266649 -2.026455,-0.799981 -0.450369,-0.533332 -0.676101,-1.262256 -0.676101,-2.186698 0,-0.924442 0.225732,-1.652749 0.676101,-2.186081 0.450369,-0.533332 1.125717,-0.800598 2.026455,-0.800598 z m 13.813545,0 c 0.888887,0 1.570255,0.267266 2.044328,0.800598 0.474073,0.52148 0.711232,1.244382 0.711232,2.168824 0,0.924442 -0.237159,1.658771 -0.711232,2.203955 -0.474073,0.533332 -1.155441,0.799981 -2.044328,0.799981 -0.900738,0 -1.59415,-0.266649 -2.080075,-0.799981 -0.474072,-0.545184 -0.711231,-1.279513 -0.711231,-2.203955 0,-0.924442 0.237159,-1.647344 0.711231,-2.168824 0.485925,-0.533332 1.179337,-0.800598 2.080075,-0.800598 z m 12.532835,0 c 0.794072,0 1.422481,0.225733 1.884702,0.676102 0.474073,0.438517 0.711232,1.048862 0.711232,1.831082 v 0.959607 c 0,0.78222 -0.237159,1.398586 -0.711232,1.848956 -0.462221,0.438517 -1.09063,0.657611 -1.884702,0.657611 -0.900738,0 -1.576086,-0.266649 -2.026455,-0.799981 -0.450369,-0.533332 -0.675485,-1.262256 -0.675485,-2.186698 0,-0.924442 0.225116,-1.652749 0.675485,-2.186081 0.450369,-0.533332 1.125717,-0.800598 2.026455,-0.800598 z m 13.813545,0 c 0.888887,0 1.570256,0.267266 2.044329,0.800598 0.474072,0.52148 0.711231,1.244382 0.711231,2.168824 0,0.924442 -0.237159,1.658771 -0.711231,2.203955 -0.474073,0.533332 -1.155442,0.799981 -2.044329,0.799981 -0.900738,0 -1.59415,-0.266649 -2.080074,-0.799981 -0.474073,-0.545184 -0.711232,-1.279513 -0.711232,-2.203955 0,-0.924442 0.237159,-1.647344 0.711232,-2.168824 0.485924,-0.533332 1.179336,-0.800598 2.080074,-0.800598 z m -67.0764,0.406154 c -5.927669,0 -6.646422,8.440327 0.59598,10.324566 -0.169899,-0.483857 -0.37968,-1.239603 -0.387048,-2.069597 -0.0062,-0.701036 0.136632,-1.479424 0.616319,-2.154033 0.48099,-0.676447 1.28583,-1.202129 2.441853,-1.44465 0.434154,-0.09108 0.826939,-0.19484 1.185181,-0.30631 -0.05601,-2.411738 -2.027085,-4.349976 -4.452285,-4.349976 z m 4.30067,5.607265 c -0.252337,0.0672 -0.516635,0.130314 -0.794434,0.188594 -0.94073,0.197356 -1.433293,0.560062 -1.731855,0.979946 -0.296953,0.417627 -0.405368,0.931608 -0.400607,1.46807 0.0013,0.144255 0.0117,0.287958 0.02773,0.428958 1.434968,-0.47474 2.513748,-1.639548 2.899162,-3.065568 z"
     transform="matrix(0.83846969,0,0,0.83846969,-12.460589,-10.726701)" /></svg>
