<?xml version="1.0" encoding="UTF-8" standalone="no"?>
<!-- Created with Inkscape (http://www.inkscape.org/) -->

<svg
   width="95"
   height="76.051056"
   viewBox="0 0 25.135416 20.121841"
   version="1.1"
   id="svg1"
   xml:space="preserve"
   inkscape:version="1.3 (0e150ed6c4, 2023-07-21)"
   sodipodi:docname="dodo.main.svg"
   inkscape:export-filename="favicon-light.png"
   inkscape:export-xdpi="96"
   inkscape:export-ydpi="96"
   xmlns:inkscape="http://www.inkscape.org/namespaces/inkscape"
   xmlns:sodipodi="http://sodipodi.sourceforge.net/DTD/sodipodi-0.dtd"
   xmlns="http://www.w3.org/2000/svg"
   xmlns:svg="http://www.w3.org/2000/svg"><sodipodi:namedview
     id="namedview1"
     pagecolor="#505050"
     bordercolor="#eeeeee"
     borderopacity="1"
     inkscape:showpageshadow="0"
     inkscape:pageopacity="0"
     inkscape:pagecheckerboard="0"
     inkscape:deskcolor="#505050"
     inkscape:document-units="mm"
     inkscape:zoom="1.4062269"
     inkscape:cx="24.178175"
     inkscape:cy="155.38033"
     inkscape:window-width="1920"
     inkscape:window-height="1009"
     inkscape:window-x="-8"
     inkscape:window-y="-8"
     inkscape:window-maximized="1"
     inkscape:current-layer="g43" /><defs
     id="defs1" /><path
     id="path9"
     style="display:inline;opacity:1;fill:#8031a7;fill-opacity:1;stroke-width:4.30916;stroke-dasharray:none"
     d="m 136.22792,56.375421 c -10.32964,0.03965 -20.03784,5.015323 -26.20313,13.429687 1.02882,-0.159038 2.05437,-0.246057 3.06641,-0.25 6.54279,-0.02549 12.56481,3.172849 15.83007,9.363282 l 1.11719,2.117187 -0.94922,2.197266 c -0.30218,0.699335 -0.28818,0.637792 -0.55273,1.246094 l 2.89062,-0.634766 1.87696,1.548828 c 0,0 5.40378,4.371925 9.41406,10.861329 2.00513,3.244706 3.76589,7.124882 4.10547,11.572262 0.33959,4.44739 -1.03413,9.45288 -4.64453,13.58789 -0.3774,0.43222 -0.771,0.83434 -1.17578,1.2168 16.09872,-2.40424 28.03005,-16.42344 28.03711,-32.943359 0,-18.397986 -14.69066,-33.3125 -32.8125,-33.3125 z M 113.88026,74.38714 c -0.24243,-0.004 -0.48162,-0.002 -0.71875,0.0059 -3.79419,0.12611 -6.83789,1.673828 -6.83789,1.673828 -3.50749,12.930547 -7.81578,19.234687 -11.640627,22.212891 5.514817,3.964721 9.300427,10.190671 9.984377,17.287111 2.86653,-1.32658 4.88133,-2.75816 6.18554,-4.07617 2.48769,-2.51401 2.17718,-4.42232 2.06055,-4.61914 l -0.63672,-1.07422 3.22657,-1.91211 1.07421,-0.63867 0.63868,1.07617 c 1.80143,3.03993 0.6446,7.19385 -2.81055,10.68554 -2.1974,2.22067 -5.40409,4.3157 -9.8457,6.05079 -0.17774,1.30338 0.74223,4.28335 0.36197,5.51932 15.54157,-5.93993 25.68043,0.49317 33.49154,-8.45292 11.18988,-12.81582 -8.28906,-28.874998 -8.28906,-28.874998 l -10.25,2.25 c 0,0 0.25001,-0.12504 4.625,-10.25 -2.81249,-5.33201 -6.98267,-6.803977 -10.61914,-6.863281 z M 80.665414,98.750421 c -25.446893,0 -28.534266,36.233419 2.556641,44.322269 -0.729361,-2.07715 -1.628529,-5.32169 -1.660156,-8.88477 -0.02671,-3.00948 0.585285,-6.35006 2.644531,-9.24609 2.064842,-2.90392 5.521681,-5.16201 10.484375,-6.20313 1.863777,-0.39099 3.549997,-0.83592 5.087891,-1.31445 C 99.538254,107.0709 91.076554,98.750421 80.665414,98.750421 Z m 18.460938,24.070309 c -1.083257,0.28847 -2.217591,0.56036 -3.410156,0.81055 -4.038459,0.84723 -6.151896,2.40451 -7.433594,4.20703 -1.274792,1.79283 -1.741142,3.99976 -1.720703,6.30274 0.0055,0.61927 0.0503,1.23649 0.119141,1.84179 6.160172,-2.03801 10.790766,-7.04035 12.445312,-13.16211 z"
     transform="matrix(0.23209316,0,0,0.23209316,-14.097708,-13.08435)"
     sodipodi:nodetypes="ccsccccccsssccccccccsccccccccscccccscssscscssscc" /></svg>
